<svg width="400" height="400" viewBox="0 0 400 400" fill="none" xmlns="http://www.w3.org/2000/svg">
<rect width="400" height="400" rx="200" fill="white"/>
<path fill-rule="evenodd" clip-rule="evenodd" d="M286.004 259.317C273.989 265.014 264.234 274.717 258.474 286.701C249.686 304.983 238.199 321.724 224.531 336.405C210.982 350.96 188.249 350.96 174.699 336.405C160.836 321.514 149.218 304.506 140.383 285.919C134.716 273.998 125.102 264.307 113.227 258.545C95.0675 249.734 78.4435 238.258 63.8624 224.625C49.337 211.044 49.3859 188.311 63.9695 174.793C78.583 161.247 95.223 149.858 113.382 141.132C125.29 135.41 134.947 125.743 140.656 113.829C149.457 95.4654 160.979 78.6536 174.699 63.9159C188.249 49.3614 210.982 49.3614 224.531 63.9159C238.183 78.5796 249.657 95.2967 258.441 113.553C264.185 125.489 273.892 135.16 285.849 140.86C304.494 149.747 321.545 161.434 336.458 175.378C350.984 188.959 350.935 211.692 336.351 225.21C321.487 238.988 304.527 250.534 286.004 259.317Z" fill="url(#paint0_linear_20_22)"/>
<defs>
<linearGradient id="paint0_linear_20_22" x1="200.16" y1="53" x2="200.16" y2="347.321" gradientUnits="userSpaceOnUse">
<stop stop-color="#234BFB"/>
<stop offset="1" stop-color="#FF4ED3"/>
</linearGradient>
</defs>
</svg>
